<svg width="155" height="133" viewBox="0 0 155 133" fill="none" xmlns="http://www.w3.org/2000/svg">
<rect width="155" height="133" fill="#E5E5E5"/>
<g id="Homepage - V2" clip-path="url(#clip0_48_376)">
<rect width="1400" height="7054" transform="translate(-823 -430)" fill="white"/>
<g id="Frame 265" clip-path="url(#clip1_48_376)">
<rect id="Rectangle 1267" x="-823" y="-430" width="1400" height="801" fill="white"/>
<circle id="Ellipse 9" cx="600.5" cy="-572.5" r="646.5" fill="#F1F1F1"/>
<g id="Frame 284">
<g id="HeroGraphics" clip-path="url(#clip2_48_376)">
<g id="Rectangle 1289" filter="url(#filter0_b_48_376)">
<rect x="-16.2524" y="-18.335" width="192.175" height="165.335" rx="15.0305" fill="#0A2640" fill-opacity="0.8"/>
</g>
<g id="Group 286">
<g id="Group 263">
<g id="Group 255">
<ellipse id="Ellipse 6" cx="5.52397" cy="5.60049" rx="4.90874" ry="4.75784" fill="#FC5B00"/>
<ellipse id="Ellipse 7" cx="25.159" cy="5.60049" rx="4.90874" ry="4.75784" fill="#ECAA00"/>
<ellipse id="Ellipse 8" cx="44.794" cy="5.60049" rx="4.90874" ry="4.75784" fill="#009D10"/>
</g>
</g>
<g id="Group 208">
<rect id="Rectangle 1275" width="9.67665" height="23.2668" rx="4.83833" transform="matrix(1 0 0 -1 9.47119 132.528)" fill="#0DBBFC"/>
<rect id="Rectangle 1276" width="9.67665" height="13.4841" rx="4.83833" transform="matrix(1 0 0 -1 28.8245 122.745)" fill="#0DBBFC"/>
<rect id="Rectangle 1277" x="48.1777" y="46.8639" width="9.67665" height="62.3972" rx="4.83833" fill="#0DBBFC"/>
<rect id="Rectangle 1278" x="67.5312" y="66.1648" width="9.67665" height="43.0964" rx="4.83833" fill="#0DBBFC"/>
<rect id="Rectangle 1279" x="86.8845" y="26.2411" width="9.67666" height="83.02" rx="4.83833" fill="#95ABBC"/>
<rect id="Rectangle 1280" x="106.238" y="50.5655" width="9.67664" height="58.6957" rx="4.83832" fill="#0DBBFC"/>
<rect id="Rectangle 1281" x="125.591" y="39.1965" width="9.67664" height="70.0647" rx="4.83832" fill="#0DBBFC"/>
<rect id="Rectangle 1282" x="144.944" y="77.2693" width="9.67667" height="31.9918" rx="4.83833" fill="#0DBBFC"/>
</g>
</g>
</g>
</g>
</g>
</g>
<defs>
<filter id="filter0_b_48_376" x="-160.252" y="-162.335" width="480.175" height="453.335" filterUnits="userSpaceOnUse" color-interpolation-filters="sRGB">
<feFlood flood-opacity="0" result="BackgroundImageFix"/>
<feGaussianBlur in="BackgroundImageFix" stdDeviation="72"/>
<feComposite in2="SourceAlpha" operator="in" result="effect1_backgroundBlur_48_376"/>
<feBlend mode="normal" in="SourceGraphic" in2="effect1_backgroundBlur_48_376" result="shape"/>
</filter>
<clipPath id="clip0_48_376">
<rect width="1400" height="7054" fill="white" transform="translate(-823 -430)"/>
</clipPath>
<clipPath id="clip1_48_376">
<rect width="1400" height="801" fill="white" transform="translate(-823 -430)"/>
</clipPath>
<clipPath id="clip2_48_376">
<rect width="494" height="423" fill="white" transform="translate(-17 -276)"/>
</clipPath>
</defs>
</svg>
