<svg width="227" height="340" viewBox="0 0 227 340" fill="none" xmlns="http://www.w3.org/2000/svg">
<g clip-path="url(#clip0_604_1459)">
<path d="M187.328 110.53C187.328 151.644 154.079 184.927 113.124 184.927C72.1679 184.927 38.9193 151.644 38.9193 110.53C38.9193 69.4147 72.1679 36.132 113.124 36.132C154.079 36.132 187.328 69.4147 187.328 110.53Z" stroke="#0A2640" stroke-width="24.971"/>
<mask id="mask0_604_1459" style="mask-type:alpha" maskUnits="userSpaceOnUse" x="-26" y="-8" width="137" height="226">
<path d="M110.357 102.519L76.5417 -7.77979L-25.8259 122.237L28.5857 217.13L110.357 102.519Z" fill="#C4C4C4"/>
</mask>
<g mask="url(#mask0_604_1459)">
<path d="M187.328 110.529C187.328 151.644 154.079 184.927 113.124 184.927C72.1681 184.927 38.9196 151.644 38.9196 110.529C38.9196 69.4144 72.1681 36.1317 113.124 36.1317C154.079 36.1317 187.328 69.4144 187.328 110.529Z" stroke="#0DBBFC" stroke-width="24.971"/>
</g>
<mask id="mask1_604_1459" style="mask-type:alpha" maskUnits="userSpaceOnUse" x="65" y="-17" width="169" height="157">
<path d="M121.803 112.184L233.667 139.575L174.552 -15.1032L65.3613 -16.881L121.803 112.184Z" fill="#C4C4C4"/>
</mask>
<g mask="url(#mask1_604_1459)">
<path d="M75.0875 174.371C39.8629 153.33 28.3026 107.674 49.2714 72.3955C70.2402 37.117 115.795 25.5793 151.019 46.6208C186.244 67.6623 197.804 113.318 176.836 148.596C155.867 183.875 110.312 195.413 75.0875 174.371Z" stroke="#69E6A6" stroke-width="24.971"/>
</g>
</g>
<g clip-path="url(#clip1_604_1459)">
<path d="M40.3686 237.251C39.8737 237.251 39.418 237.163 39.0017 236.987C38.5854 236.811 38.2269 236.562 37.9262 236.238C37.6255 235.909 37.4058 235.518 37.267 235.065L38.2384 234.774C38.405 235.269 38.6779 235.643 39.0572 235.898C39.4412 236.152 39.8737 236.275 40.3548 236.265C40.7989 236.256 41.1805 236.157 41.4997 235.967C41.8235 235.777 42.071 235.514 42.2421 235.176C42.4133 234.838 42.4989 234.448 42.4989 234.003C42.4989 233.323 42.2999 232.778 41.9021 232.366C41.5089 231.95 40.9885 231.741 40.3409 231.741C40.1605 231.741 39.9708 231.767 39.7719 231.818C39.573 231.864 39.388 231.931 39.2168 232.019L38.7033 231.207L42.5891 227.62L42.7556 228.036H37.6625V227.058H43.4356V228.05L40.0495 231.283L40.0356 230.881C40.7295 230.793 41.3401 230.872 41.8674 231.117C42.3948 231.362 42.8065 231.737 43.1025 232.241C43.4032 232.741 43.5535 233.328 43.5535 234.003C43.5535 234.642 43.4148 235.206 43.1372 235.696C42.8643 236.182 42.4873 236.564 42.0062 236.841C41.5251 237.114 40.9793 237.251 40.3686 237.251ZM48.3029 237.258C47.7848 237.258 47.3061 237.151 46.8666 236.939C46.4271 236.726 46.0524 236.432 45.7425 236.057C45.4326 235.683 45.2105 235.252 45.0764 234.767L46.0548 234.503C46.1426 234.864 46.3022 235.176 46.5335 235.44C46.7648 235.699 47.0354 235.9 47.3454 236.043C47.6599 236.187 47.9884 236.259 48.3307 236.259C48.7748 236.259 49.1726 236.152 49.5241 235.939C49.8803 235.722 50.1625 235.435 50.3707 235.079C50.5788 234.723 50.6829 234.332 50.6829 233.906C50.6829 233.467 50.5742 233.071 50.3568 232.72C50.1394 232.364 49.8526 232.081 49.4964 231.873C49.1402 231.665 48.7516 231.561 48.3307 231.561C47.8588 231.561 47.4518 231.665 47.1095 231.873C46.7671 232.077 46.4942 232.334 46.2907 232.643L45.3609 232.255L45.6662 227.058H51.0021V228.036H46.1172L46.6237 227.557L46.3531 231.991L46.0964 231.651C46.3832 231.323 46.7301 231.066 47.1372 230.881C47.5443 230.696 47.9722 230.603 48.4209 230.603C49.0361 230.603 49.5912 230.751 50.0862 231.048C50.5812 231.339 50.9743 231.734 51.2658 232.234C51.5572 232.734 51.7029 233.291 51.7029 233.906C51.7029 234.517 51.548 235.077 51.238 235.585C50.9281 236.09 50.5164 236.494 50.0029 236.8C49.4895 237.105 48.9228 237.258 48.3029 237.258ZM54.3348 237.05L53.6409 236.356L62.9597 227.058L63.6536 227.745L54.3348 237.05ZM61.5719 237.258C61.114 237.258 60.6953 237.147 60.316 236.925C59.9413 236.698 59.6406 236.397 59.414 236.023C59.1873 235.643 59.074 235.222 59.074 234.76C59.074 234.306 59.1896 233.89 59.4209 233.511C59.6522 233.131 59.9575 232.828 60.3368 232.602C60.7161 232.375 61.1278 232.262 61.5719 232.262C62.0299 232.262 62.4485 232.375 62.8278 232.602C63.2072 232.824 63.5078 233.125 63.7299 233.504C63.9565 233.879 64.0699 234.297 64.0699 234.76C64.0699 235.222 63.9565 235.643 63.7299 236.023C63.5078 236.397 63.2072 236.698 62.8278 236.925C62.4485 237.147 62.0299 237.258 61.5719 237.258ZM61.5719 236.335C61.8541 236.335 62.1155 236.263 62.356 236.12C62.5965 235.976 62.7885 235.787 62.9319 235.551C63.0753 235.31 63.147 235.047 63.147 234.76C63.147 234.473 63.0753 234.212 62.9319 233.976C62.7885 233.735 62.5965 233.543 62.356 233.4C62.1155 233.256 61.8541 233.185 61.5719 233.185C61.2851 233.185 61.0214 233.256 60.7809 233.4C60.545 233.543 60.353 233.735 60.205 233.976C60.0616 234.212 59.9899 234.473 59.9899 234.76C59.9899 235.047 60.0616 235.31 60.205 235.551C60.353 235.787 60.545 235.976 60.7809 236.12C61.0214 236.263 61.2851 236.335 61.5719 236.335ZM55.7225 231.845C55.2646 231.845 54.8459 231.734 54.4666 231.512C54.0873 231.286 53.7843 230.985 53.5576 230.61C53.3356 230.231 53.2246 229.81 53.2246 229.348C53.2246 228.894 53.3402 228.478 53.5715 228.099C53.8028 227.719 54.1081 227.416 54.4874 227.19C54.8667 226.963 55.2784 226.85 55.7225 226.85C56.1805 226.85 56.5968 226.963 56.9715 227.19C57.3508 227.412 57.6538 227.712 57.8805 228.092C58.1072 228.466 58.2205 228.885 58.2205 229.348C58.2205 229.81 58.1072 230.231 57.8805 230.61C57.6538 230.985 57.3508 231.286 56.9715 231.512C56.5968 231.734 56.1805 231.845 55.7225 231.845ZM55.7225 230.923C56.0093 230.923 56.2707 230.851 56.5066 230.708C56.7472 230.564 56.9391 230.374 57.0825 230.139C57.2259 229.898 57.2976 229.634 57.2976 229.348C57.2976 229.061 57.2259 228.799 57.0825 228.563C56.9391 228.323 56.7472 228.131 56.5066 227.988C56.2707 227.844 56.0093 227.772 55.7225 227.772C55.4357 227.772 55.1721 227.844 54.9315 227.988C54.6956 228.131 54.5059 228.323 54.3625 228.563C54.2191 228.799 54.1474 229.061 54.1474 229.348C54.1474 229.634 54.2191 229.898 54.3625 230.139C54.5059 230.374 54.6956 230.564 54.9315 230.708C55.1721 230.851 55.4357 230.923 55.7225 230.923ZM68.5116 233.115V232.241H72.6748V233.115H68.5116ZM79.3404 237.05L82.782 227.058H84.1351L87.5767 237.05H86.5151L83.2469 227.627H83.6494L80.402 237.05H79.3404ZM80.8739 234.628V233.67H86.0363V234.628H80.8739ZM91.8064 240.588C91.4225 240.588 91.0432 240.531 90.6685 240.415C90.2984 240.304 89.9561 240.126 89.6415 239.881C89.327 239.64 89.0633 239.325 88.8505 238.937L89.7734 238.423C89.9815 238.84 90.273 239.138 90.6477 239.319C91.027 239.504 91.4132 239.596 91.8064 239.596C92.3477 239.596 92.7848 239.494 93.1179 239.291C93.4556 239.092 93.7007 238.796 93.8534 238.403C94.006 238.009 94.08 237.519 94.0754 236.932V234.933H94.1934V229.556H95.1024V236.945C95.1024 237.158 95.0954 237.362 95.0815 237.556C95.0723 237.755 95.0515 237.949 95.0191 238.139C94.9312 238.699 94.7485 239.159 94.4709 239.52C94.198 239.881 93.8372 240.149 93.3885 240.325C92.9444 240.5 92.4171 240.588 91.8064 240.588ZM91.7371 237.258C91.0385 237.258 90.4418 237.084 89.9468 236.737C89.4519 236.386 89.0726 235.912 88.8089 235.315C88.5452 234.718 88.4134 234.045 88.4134 233.296C88.4134 232.551 88.5429 231.88 88.8019 231.283C89.0656 230.687 89.4426 230.215 89.933 229.868C90.4233 229.521 91.0108 229.348 91.6954 229.348C92.3985 229.348 92.9907 229.519 93.4717 229.861C93.9528 230.203 94.316 230.673 94.5611 231.27C94.8109 231.862 94.9358 232.537 94.9358 233.296C94.9358 234.04 94.8132 234.714 94.5681 235.315C94.3229 235.912 93.9621 236.386 93.4856 236.737C93.0092 237.084 92.4263 237.258 91.7371 237.258ZM91.8411 236.307C92.3731 236.307 92.8126 236.178 93.1595 235.919C93.5064 235.659 93.7655 235.303 93.9366 234.85C94.1078 234.392 94.1934 233.874 94.1934 233.296C94.1934 232.708 94.1078 232.19 93.9366 231.741C93.7655 231.288 93.5064 230.934 93.1595 230.68C92.8172 230.425 92.3847 230.298 91.8619 230.298C91.3254 230.298 90.8813 230.43 90.5297 230.694C90.1781 230.957 89.9168 231.316 89.7456 231.769C89.5791 232.222 89.4958 232.731 89.4958 233.296C89.4958 233.865 89.5814 234.378 89.7526 234.836C89.9283 235.289 90.1897 235.648 90.5366 235.912C90.8836 236.175 91.3184 236.307 91.8411 236.307ZM97.1812 228.133V226.988H98.2012V228.133H97.1812ZM97.1812 237.05V229.556H98.2012V237.05H97.1812ZM100.42 237.05V226.85H101.44V237.05H100.42ZM106.691 237.258C105.961 237.258 105.327 237.096 104.79 236.772C104.258 236.448 103.844 235.993 103.548 235.405C103.252 234.818 103.104 234.128 103.104 233.337C103.104 232.519 103.25 231.811 103.541 231.214C103.833 230.617 104.242 230.157 104.769 229.833C105.301 229.509 105.928 229.348 106.65 229.348C107.39 229.348 108.021 229.519 108.544 229.861C109.067 230.199 109.462 230.684 109.731 231.318C109.999 231.952 110.121 232.708 110.098 233.587H109.058V233.226C109.039 232.255 108.829 231.522 108.426 231.027C108.028 230.532 107.445 230.284 106.678 230.284C105.873 230.284 105.255 230.546 104.825 231.068C104.399 231.591 104.187 232.336 104.187 233.303C104.187 234.246 104.399 234.979 104.825 235.502C105.255 236.02 105.863 236.279 106.65 236.279C107.186 236.279 107.654 236.157 108.051 235.912C108.454 235.662 108.771 235.303 109.002 234.836L109.953 235.204C109.657 235.856 109.219 236.363 108.641 236.723C108.068 237.08 107.418 237.258 106.691 237.258ZM103.826 233.587V232.734H109.55V233.587H103.826ZM114.416 237.05V227.058H117.449C117.555 227.058 117.735 227.06 117.99 227.065C118.249 227.069 118.496 227.088 118.732 227.12C119.491 227.227 120.125 227.509 120.634 227.967C121.142 228.425 121.524 229.008 121.778 229.715C122.033 230.423 122.16 231.202 122.16 232.054C122.16 232.905 122.033 233.684 121.778 234.392C121.524 235.1 121.142 235.683 120.634 236.141C120.125 236.599 119.491 236.881 118.732 236.987C118.501 237.015 118.254 237.033 117.99 237.043C117.726 237.047 117.546 237.05 117.449 237.05H114.416ZM115.471 236.071H117.449C117.638 236.071 117.842 236.067 118.059 236.057C118.281 236.043 118.471 236.02 118.628 235.988C119.211 235.886 119.681 235.65 120.037 235.28C120.398 234.91 120.661 234.448 120.828 233.892C120.994 233.333 121.078 232.72 121.078 232.054C121.078 231.383 120.994 230.768 120.828 230.208C120.661 229.648 120.398 229.186 120.037 228.82C119.676 228.455 119.207 228.221 118.628 228.119C118.471 228.087 118.279 228.066 118.052 228.057C117.83 228.043 117.629 228.036 117.449 228.036H115.471V236.071ZM126.911 237.258C126.181 237.258 125.547 237.096 125.01 236.772C124.478 236.448 124.064 235.993 123.768 235.405C123.472 234.818 123.324 234.128 123.324 233.337C123.324 232.519 123.47 231.811 123.761 231.214C124.053 230.617 124.462 230.157 124.989 229.833C125.521 229.509 126.148 229.348 126.87 229.348C127.61 229.348 128.241 229.519 128.764 229.861C129.287 230.199 129.682 230.684 129.951 231.318C130.219 231.952 130.342 232.708 130.318 233.587H129.278V233.226C129.259 232.255 129.049 231.522 128.646 231.027C128.248 230.532 127.665 230.284 126.898 230.284C126.093 230.284 125.475 230.546 125.045 231.068C124.619 231.591 124.407 232.336 124.407 233.303C124.407 234.246 124.619 234.979 125.045 235.502C125.475 236.02 126.083 236.279 126.87 236.279C127.406 236.279 127.874 236.157 128.271 235.912C128.674 235.662 128.991 235.303 129.222 234.836L130.173 235.204C129.877 235.856 129.439 236.363 128.861 236.723C128.288 237.08 127.638 237.258 126.911 237.258ZM124.046 233.587V232.734H129.77V233.587H124.046ZM133.613 237.05L130.893 229.556H131.927L134.141 235.717L136.34 229.556H137.388L134.668 237.05H133.613ZM141.534 237.258C140.803 237.258 140.17 237.096 139.633 236.772C139.101 236.448 138.687 235.993 138.391 235.405C138.095 234.818 137.947 234.128 137.947 233.337C137.947 232.519 138.093 231.811 138.384 231.214C138.676 230.617 139.085 230.157 139.612 229.833C140.144 229.509 140.771 229.348 141.493 229.348C142.233 229.348 142.864 229.519 143.387 229.861C143.91 230.199 144.305 230.684 144.574 231.318C144.842 231.952 144.964 232.708 144.941 233.587H143.9V233.226C143.882 232.255 143.672 231.522 143.269 231.027C142.871 230.532 142.288 230.284 141.52 230.284C140.716 230.284 140.098 230.546 139.668 231.068C139.242 231.591 139.029 232.336 139.029 233.303C139.029 234.246 139.242 234.979 139.668 235.502C140.098 236.02 140.706 236.279 141.493 236.279C142.029 236.279 142.497 236.157 142.894 235.912C143.297 235.662 143.614 235.303 143.845 234.836L144.796 235.204C144.5 235.856 144.062 236.363 143.484 236.723C142.911 237.08 142.261 237.258 141.534 237.258ZM138.669 233.587V232.734H144.393V233.587H138.669ZM146.62 237.05V226.85H147.64V237.05H146.62ZM152.85 237.258C152.105 237.258 151.469 237.089 150.941 236.751C150.414 236.414 150.009 235.946 149.727 235.35C149.445 234.753 149.304 234.068 149.304 233.296C149.304 232.509 149.447 231.82 149.734 231.228C150.021 230.636 150.428 230.176 150.955 229.847C151.487 229.514 152.119 229.348 152.85 229.348C153.599 229.348 154.237 229.516 154.765 229.854C155.297 230.187 155.701 230.652 155.979 231.249C156.261 231.841 156.402 232.523 156.402 233.296C156.402 234.082 156.261 234.774 155.979 235.37C155.697 235.962 155.29 236.425 154.758 236.758C154.226 237.091 153.59 237.258 152.85 237.258ZM152.85 236.279C153.682 236.279 154.302 236.004 154.709 235.454C155.116 234.899 155.32 234.179 155.32 233.296C155.32 232.389 155.114 231.667 154.702 231.131C154.295 230.594 153.678 230.326 152.85 230.326C152.29 230.326 151.827 230.453 151.462 230.708C151.101 230.957 150.83 231.307 150.65 231.755C150.474 232.199 150.386 232.713 150.386 233.296C150.386 234.198 150.594 234.922 151.011 235.468C151.427 236.009 152.04 236.279 152.85 236.279ZM161.298 237.258C160.609 237.258 160.026 237.084 159.55 236.737C159.073 236.386 158.712 235.912 158.467 235.315C158.222 234.714 158.099 234.04 158.099 233.296C158.099 232.537 158.222 231.862 158.467 231.27C158.717 230.673 159.082 230.203 159.563 229.861C160.045 229.519 160.637 229.348 161.34 229.348C162.024 229.348 162.612 229.521 163.102 229.868C163.593 230.215 163.967 230.687 164.226 231.283C164.49 231.88 164.622 232.551 164.622 233.296C164.622 234.045 164.49 234.718 164.226 235.315C163.963 235.912 163.583 236.386 163.088 236.737C162.593 237.084 161.997 237.258 161.298 237.258ZM157.926 240.38V229.556H158.842V235.197H158.953V240.38H157.926ZM161.194 236.307C161.717 236.307 162.152 236.175 162.499 235.912C162.846 235.648 163.105 235.289 163.276 234.836C163.451 234.378 163.539 233.865 163.539 233.296C163.539 232.731 163.454 232.222 163.283 231.769C163.111 231.316 162.85 230.957 162.499 230.694C162.152 230.43 161.71 230.298 161.173 230.298C160.651 230.298 160.216 230.425 159.869 230.68C159.526 230.934 159.27 231.288 159.099 231.741C158.927 232.19 158.842 232.708 158.842 233.296C158.842 233.874 158.927 234.392 159.099 234.85C159.27 235.303 159.529 235.659 159.876 235.919C160.223 236.178 160.662 236.307 161.194 236.307ZM175.083 237.05L175.09 232.13C175.09 231.552 174.928 231.098 174.604 230.77C174.285 230.437 173.878 230.27 173.383 230.27C173.101 230.27 172.825 230.335 172.557 230.465C172.289 230.594 172.067 230.802 171.891 231.089C171.72 231.376 171.634 231.751 171.634 232.213L171.03 232.04C171.017 231.503 171.121 231.034 171.343 230.631C171.569 230.229 171.879 229.916 172.272 229.694C172.67 229.468 173.119 229.354 173.619 229.354C174.373 229.354 174.976 229.588 175.43 230.055C175.883 230.518 176.11 231.145 176.11 231.936L176.103 237.05H175.083ZM166.139 237.05V229.556H167.055V231.401H167.166V237.05H166.139ZM170.621 237.05L170.628 232.199C170.628 231.603 170.468 231.133 170.149 230.791C169.835 230.444 169.418 230.27 168.9 230.27C168.382 230.27 167.964 230.448 167.644 230.805C167.325 231.156 167.166 231.626 167.166 232.213L166.555 231.88C166.555 231.399 166.668 230.969 166.895 230.59C167.122 230.206 167.432 229.905 167.825 229.688C168.218 229.465 168.664 229.354 169.164 229.354C169.64 229.354 170.064 229.456 170.434 229.66C170.808 229.863 171.102 230.159 171.315 230.548C171.528 230.936 171.634 231.408 171.634 231.963L171.627 237.05H170.621ZM181.039 237.258C180.308 237.258 179.675 237.096 179.138 236.772C178.606 236.448 178.192 235.993 177.896 235.405C177.6 234.818 177.452 234.128 177.452 233.337C177.452 232.519 177.598 231.811 177.889 231.214C178.181 230.617 178.59 230.157 179.117 229.833C179.649 229.509 180.276 229.348 180.998 229.348C181.738 229.348 182.369 229.519 182.892 229.861C183.415 230.199 183.81 230.684 184.078 231.318C184.347 231.952 184.469 232.708 184.446 233.587H183.405V233.226C183.387 232.255 183.176 231.522 182.774 231.027C182.376 230.532 181.793 230.284 181.025 230.284C180.221 230.284 179.603 230.546 179.173 231.068C178.747 231.591 178.534 232.336 178.534 233.303C178.534 234.246 178.747 234.979 179.173 235.502C179.603 236.02 180.211 236.279 180.998 236.279C181.534 236.279 182.001 236.157 182.399 235.912C182.802 235.662 183.119 235.303 183.35 234.836L184.301 235.204C184.004 235.856 183.567 236.363 182.989 236.723C182.415 237.08 181.766 237.258 181.039 237.258ZM178.174 233.587V232.734H183.898V233.587H178.174ZM191.195 237.05V233.226C191.195 232.81 191.156 232.428 191.077 232.081C190.998 231.73 190.871 231.425 190.695 231.165C190.524 230.902 190.3 230.698 190.022 230.555C189.749 230.411 189.416 230.34 189.023 230.34C188.662 230.34 188.343 230.402 188.066 230.527C187.793 230.652 187.561 230.832 187.372 231.068C187.187 231.3 187.046 231.582 186.949 231.915C186.851 232.248 186.803 232.627 186.803 233.053L186.081 232.893C186.081 232.125 186.215 231.48 186.484 230.957C186.752 230.435 187.122 230.039 187.594 229.771C188.066 229.502 188.607 229.368 189.218 229.368C189.666 229.368 190.057 229.438 190.39 229.576C190.728 229.715 191.012 229.903 191.244 230.139C191.48 230.374 191.669 230.645 191.813 230.95C191.956 231.251 192.06 231.573 192.125 231.915C192.19 232.253 192.222 232.59 192.222 232.928V237.05H191.195ZM185.776 237.05V229.556H186.699V231.401H186.803V237.05H185.776ZM198.103 237.05C197.682 237.137 197.265 237.172 196.854 237.154C196.447 237.135 196.081 237.047 195.757 236.89C195.438 236.733 195.195 236.488 195.029 236.154C194.895 235.877 194.821 235.597 194.807 235.315C194.797 235.028 194.793 234.702 194.793 234.336V227.474H195.806V234.295C195.806 234.609 195.808 234.873 195.813 235.086C195.822 235.294 195.871 235.479 195.959 235.641C196.125 235.951 196.389 236.136 196.75 236.196C197.115 236.256 197.566 236.242 198.103 236.154V237.05ZM193.19 230.43V229.556H198.103V230.43H193.19Z" fill="black"/>
<ellipse cx="26.275" cy="232.945" rx="2.485" ry="2.47813" fill="#0DBBFC"/>
<path d="M40.3686 272.936C39.8737 272.936 39.418 272.848 39.0017 272.672C38.5854 272.496 38.2269 272.247 37.9262 271.923C37.6255 271.594 37.4058 271.203 37.267 270.75L38.2384 270.459C38.405 270.954 38.6779 271.328 39.0572 271.583C39.4412 271.837 39.8737 271.96 40.3548 271.951C40.7989 271.941 41.1805 271.842 41.4997 271.652C41.8235 271.463 42.071 271.199 42.2421 270.861C42.4133 270.523 42.4989 270.133 42.4989 269.688C42.4989 269.008 42.2999 268.463 41.9021 268.051C41.5089 267.635 40.9885 267.426 40.3409 267.426C40.1605 267.426 39.9708 267.452 39.7719 267.503C39.573 267.549 39.388 267.616 39.2168 267.704L38.7033 266.892L42.5891 263.305L42.7556 263.721H37.6625V262.743H43.4356V263.735L40.0495 266.968L40.0356 266.566C40.7295 266.478 41.3401 266.557 41.8674 266.802C42.3948 267.047 42.8065 267.422 43.1025 267.926C43.4032 268.426 43.5535 269.013 43.5535 269.688C43.5535 270.327 43.4148 270.891 43.1372 271.382C42.8643 271.867 42.4873 272.249 42.0062 272.526C41.5251 272.799 40.9793 272.936 40.3686 272.936ZM48.6152 272.943C47.9999 272.943 47.4448 272.799 46.9499 272.513C46.4595 272.226 46.0709 271.837 45.7841 271.347C45.4973 270.852 45.3539 270.297 45.3539 269.682V265.796C45.3539 265.181 45.4973 264.628 45.7841 264.137C46.0709 263.643 46.4595 263.252 46.9499 262.965C47.4448 262.678 47.9999 262.535 48.6152 262.535C49.2304 262.535 49.7832 262.678 50.2735 262.965C50.7685 263.252 51.1594 263.643 51.4462 264.137C51.733 264.628 51.8764 265.181 51.8764 265.796V269.682C51.8764 270.297 51.733 270.852 51.4462 271.347C51.1594 271.837 50.7685 272.226 50.2735 272.513C49.7832 272.799 49.2304 272.943 48.6152 272.943ZM48.6152 271.957C49.0269 271.957 49.4016 271.858 49.7392 271.659C50.0769 271.456 50.3452 271.185 50.5441 270.847C50.7431 270.51 50.8425 270.137 50.8425 269.73V265.747C50.8425 265.336 50.7431 264.961 50.5441 264.623C50.3452 264.286 50.0769 264.017 49.7392 263.818C49.4016 263.615 49.0269 263.513 48.6152 263.513C48.2035 263.513 47.8288 263.615 47.4911 263.818C47.1534 264.017 46.8851 264.286 46.6862 264.623C46.4873 264.961 46.3878 265.336 46.3878 265.747V269.73C46.3878 270.137 46.4873 270.51 46.6862 270.847C46.8851 271.185 47.1534 271.456 47.4911 271.659C47.8288 271.858 48.2035 271.957 48.6152 271.957ZM54.7956 272.735L54.1017 272.041L63.4205 262.743L64.1143 263.43L54.7956 272.735ZM62.0327 272.943C61.5747 272.943 61.1561 272.832 60.7768 272.61C60.4021 272.383 60.1014 272.082 59.8747 271.708C59.6481 271.328 59.5347 270.907 59.5347 270.445C59.5347 269.991 59.6504 269.575 59.8817 269.196C60.113 268.817 60.4183 268.514 60.7976 268.287C61.1769 268.06 61.5886 267.947 62.0327 267.947C62.4907 267.947 62.9093 268.06 63.2886 268.287C63.6679 268.509 63.9686 268.81 64.1907 269.189C64.4173 269.564 64.5307 269.982 64.5307 270.445C64.5307 270.907 64.4173 271.328 64.1907 271.708C63.9686 272.082 63.6679 272.383 63.2886 272.61C62.9093 272.832 62.4907 272.943 62.0327 272.943ZM62.0327 272.02C62.3149 272.02 62.5762 271.948 62.8168 271.805C63.0573 271.661 63.2493 271.472 63.3927 271.236C63.5361 270.995 63.6078 270.732 63.6078 270.445C63.6078 270.158 63.5361 269.897 63.3927 269.661C63.2493 269.42 63.0573 269.228 62.8168 269.085C62.5762 268.941 62.3149 268.87 62.0327 268.87C61.7459 268.87 61.4822 268.941 61.2417 269.085C61.0058 269.228 60.8138 269.42 60.6658 269.661C60.5224 269.897 60.4507 270.158 60.4507 270.445C60.4507 270.732 60.5224 270.995 60.6658 271.236C60.8138 271.472 61.0058 271.661 61.2417 271.805C61.4822 271.948 61.7459 272.02 62.0327 272.02ZM56.1833 267.531C55.7254 267.531 55.3067 267.42 54.9274 267.197C54.5481 266.971 54.2451 266.67 54.0184 266.295C53.7964 265.916 53.6854 265.495 53.6854 265.033C53.6854 264.579 53.801 264.163 54.0323 263.784C54.2636 263.404 54.5689 263.101 54.9482 262.875C55.3275 262.648 55.7392 262.535 56.1833 262.535C56.6413 262.535 57.0576 262.648 57.4323 262.875C57.8116 263.097 58.1146 263.397 58.3413 263.777C58.5679 264.151 58.6813 264.57 58.6813 265.033C58.6813 265.495 58.5679 265.916 58.3413 266.295C58.1146 266.67 57.8116 266.971 57.4323 267.197C57.0576 267.42 56.6413 267.531 56.1833 267.531ZM56.1833 266.608C56.4701 266.608 56.7315 266.536 56.9674 266.393C57.2079 266.249 57.3999 266.06 57.5433 265.824C57.6867 265.583 57.7584 265.319 57.7584 265.033C57.7584 264.746 57.6867 264.484 57.5433 264.248C57.3999 264.008 57.2079 263.816 56.9674 263.673C56.7315 263.529 56.4701 263.457 56.1833 263.457C55.8965 263.457 55.6328 263.529 55.3923 263.673C55.1564 263.816 54.9667 264.008 54.8233 264.248C54.6799 264.484 54.6082 264.746 54.6082 265.033C54.6082 265.319 54.6799 265.583 54.8233 265.824C54.9667 266.06 55.1564 266.249 55.3923 266.393C55.6328 266.536 55.8965 266.608 56.1833 266.608ZM68.9723 268.8V267.926H73.1356V268.8H68.9723ZM80.6338 272.735V262.743H81.6538V272.735H80.6338ZM89.1463 272.735V268.911C89.1463 268.495 89.107 268.113 89.0283 267.766C88.9497 267.415 88.8225 267.11 88.6467 266.851C88.4755 266.587 88.2512 266.383 87.9736 266.24C87.7007 266.097 87.3676 266.025 86.9744 266.025C86.6136 266.025 86.2944 266.087 86.0169 266.212C85.744 266.337 85.5127 266.517 85.323 266.753C85.138 266.985 84.9969 267.267 84.8998 267.6C84.8026 267.933 84.754 268.312 84.754 268.738L84.0324 268.578C84.0324 267.81 84.1666 267.165 84.4349 266.642C84.7032 266.12 85.0732 265.724 85.5451 265.456C86.0169 265.188 86.5581 265.053 87.1687 265.053C87.6174 265.053 88.0083 265.123 88.3414 265.262C88.6791 265.4 88.9636 265.588 89.1949 265.824C89.4308 266.06 89.6204 266.33 89.7638 266.635C89.9072 266.936 90.0113 267.258 90.0761 267.6C90.1408 267.938 90.1732 268.275 90.1732 268.613V272.735H89.1463ZM83.7271 272.735V265.241H84.65V267.086H84.754V272.735H83.7271ZM94 272.735L91.28 265.241H92.3138L94.5273 271.402L96.7269 265.241H97.7747L95.0547 272.735H94ZM101.921 272.943C101.19 272.943 100.556 272.781 100.02 272.457C99.4878 272.133 99.0738 271.678 98.7777 271.09C98.4817 270.503 98.3337 269.813 98.3337 269.022C98.3337 268.204 98.4794 267.496 98.7708 266.899C99.0622 266.302 99.4716 265.842 99.999 265.518C100.531 265.194 101.158 265.033 101.879 265.033C102.62 265.033 103.251 265.204 103.774 265.546C104.296 265.884 104.692 266.369 104.96 267.003C105.228 267.637 105.351 268.393 105.328 269.272H104.287V268.911C104.269 267.94 104.058 267.207 103.656 266.712C103.258 266.217 102.675 265.969 101.907 265.969C101.102 265.969 100.485 266.231 100.054 266.753C99.6289 267.276 99.4161 268.021 99.4161 268.988C99.4161 269.931 99.6289 270.665 100.054 271.187C100.485 271.705 101.093 271.964 101.879 271.964C102.416 271.964 102.883 271.842 103.281 271.597C103.683 271.347 104 270.988 104.232 270.521L105.182 270.889C104.886 271.541 104.449 272.048 103.871 272.408C103.297 272.765 102.647 272.943 101.921 272.943ZM99.0553 269.272V268.419H104.78V269.272H99.0553ZM109.664 272.936C108.785 272.936 108.061 272.746 107.492 272.367C106.928 271.988 106.581 271.46 106.451 270.785L107.492 270.611C107.603 271.037 107.855 271.377 108.249 271.631C108.646 271.881 109.137 272.006 109.72 272.006C110.289 272.006 110.737 271.888 111.066 271.652C111.394 271.412 111.558 271.086 111.558 270.674C111.558 270.443 111.505 270.255 111.399 270.112C111.297 269.964 111.087 269.827 110.767 269.702C110.448 269.577 109.972 269.429 109.338 269.258C108.658 269.073 108.126 268.888 107.742 268.703C107.358 268.518 107.085 268.305 106.923 268.065C106.761 267.82 106.68 267.521 106.68 267.17C106.68 266.744 106.801 266.372 107.041 266.053C107.282 265.729 107.615 265.479 108.04 265.303C108.466 265.123 108.961 265.033 109.525 265.033C110.09 265.033 110.594 265.125 111.038 265.31C111.487 265.491 111.848 265.745 112.12 266.073C112.393 266.402 112.555 266.783 112.606 267.218L111.565 267.406C111.496 266.966 111.276 266.619 110.906 266.365C110.541 266.106 110.076 265.972 109.511 265.962C108.98 265.948 108.547 266.05 108.214 266.268C107.881 266.48 107.714 266.765 107.714 267.121C107.714 267.32 107.774 267.491 107.895 267.635C108.015 267.773 108.232 267.905 108.547 268.03C108.866 268.155 109.32 268.291 109.907 268.44C110.596 268.615 111.137 268.8 111.531 268.995C111.924 269.189 112.204 269.418 112.37 269.682C112.537 269.945 112.62 270.271 112.62 270.66C112.62 271.368 112.356 271.925 111.829 272.332C111.306 272.735 110.585 272.936 109.664 272.936ZM118.239 272.735C117.818 272.823 117.402 272.857 116.99 272.839C116.583 272.82 116.217 272.732 115.894 272.575C115.574 272.418 115.332 272.173 115.165 271.84C115.031 271.562 114.957 271.282 114.943 271C114.934 270.713 114.929 270.387 114.929 270.022V263.159H115.942V269.98C115.942 270.294 115.945 270.558 115.949 270.771C115.958 270.979 116.007 271.164 116.095 271.326C116.261 271.636 116.525 271.821 116.886 271.881C117.251 271.941 117.702 271.927 118.239 271.84V272.735ZM113.326 266.115V265.241H118.239V266.115H113.326ZM122.574 272.943C121.829 272.943 121.193 272.774 120.666 272.436C120.138 272.099 119.733 271.631 119.451 271.035C119.169 270.438 119.028 269.753 119.028 268.981C119.028 268.194 119.171 267.505 119.458 266.913C119.745 266.321 120.152 265.861 120.679 265.532C121.211 265.199 121.843 265.033 122.574 265.033C123.323 265.033 123.961 265.201 124.489 265.539C125.021 265.872 125.426 266.337 125.703 266.934C125.985 267.526 126.126 268.208 126.126 268.981C126.126 269.767 125.985 270.459 125.703 271.055C125.421 271.648 125.014 272.11 124.482 272.443C123.95 272.776 123.314 272.943 122.574 272.943ZM122.574 271.964C123.406 271.964 124.026 271.689 124.433 271.139C124.84 270.584 125.044 269.864 125.044 268.981C125.044 268.074 124.838 267.352 124.426 266.816C124.019 266.279 123.402 266.011 122.574 266.011C122.014 266.011 121.551 266.138 121.186 266.393C120.825 266.642 120.555 266.992 120.374 267.44C120.198 267.884 120.11 268.398 120.11 268.981C120.11 269.883 120.319 270.607 120.735 271.153C121.151 271.694 121.764 271.964 122.574 271.964ZM127.657 272.735V265.241H128.573V267.045L128.393 266.809C128.476 266.587 128.585 266.383 128.719 266.198C128.853 266.009 128.999 265.854 129.156 265.733C129.35 265.562 129.577 265.433 129.836 265.345C130.095 265.252 130.356 265.199 130.62 265.185C130.884 265.167 131.124 265.185 131.342 265.241V266.198C131.069 266.129 130.77 266.113 130.446 266.15C130.123 266.187 129.824 266.316 129.551 266.538C129.302 266.733 129.114 266.966 128.989 267.239C128.864 267.507 128.781 267.794 128.739 268.1C128.698 268.4 128.677 268.699 128.677 268.995V272.735H127.657ZM138.801 272.943C138.112 272.943 137.529 272.769 137.053 272.422C136.576 272.071 136.215 271.597 135.97 271C135.725 270.399 135.603 269.726 135.603 268.981C135.603 268.222 135.725 267.547 135.97 266.955C136.22 266.358 136.586 265.888 137.067 265.546C137.548 265.204 138.14 265.033 138.843 265.033C139.528 265.033 140.115 265.206 140.605 265.553C141.096 265.9 141.47 266.372 141.73 266.968C141.993 267.565 142.125 268.236 142.125 268.981C142.125 269.73 141.993 270.403 141.73 271C141.466 271.597 141.087 272.071 140.592 272.422C140.097 272.769 139.5 272.943 138.801 272.943ZM135.429 272.735V262.743H136.456V267.093H136.345V272.735H135.429ZM138.697 271.992C139.22 271.992 139.655 271.86 140.002 271.597C140.349 271.333 140.608 270.974 140.779 270.521C140.955 270.063 141.043 269.55 141.043 268.981C141.043 268.416 140.957 267.908 140.786 267.454C140.615 267.001 140.353 266.642 140.002 266.379C139.655 266.115 139.213 265.983 138.676 265.983C138.154 265.983 137.719 266.11 137.372 266.365C137.03 266.619 136.773 266.973 136.602 267.426C136.431 267.875 136.345 268.393 136.345 268.981C136.345 269.559 136.431 270.077 136.602 270.535C136.773 270.988 137.032 271.345 137.379 271.604C137.726 271.863 138.165 271.992 138.697 271.992ZM145.793 272.943C145.228 272.943 144.754 272.841 144.37 272.637C143.991 272.434 143.707 272.163 143.517 271.826C143.327 271.488 143.232 271.12 143.232 270.722C143.232 270.315 143.313 269.968 143.475 269.682C143.642 269.39 143.866 269.152 144.148 268.967C144.435 268.782 144.766 268.641 145.141 268.544C145.52 268.451 145.939 268.37 146.396 268.301C146.859 268.227 147.31 268.164 147.75 268.113C148.194 268.058 148.582 268.005 148.915 267.954L148.554 268.176C148.568 267.436 148.425 266.888 148.124 266.531C147.824 266.175 147.301 265.997 146.556 265.997C146.043 265.997 145.608 266.113 145.252 266.344C144.9 266.575 144.653 266.941 144.509 267.44L143.517 267.149C143.688 266.478 144.033 265.958 144.551 265.588C145.069 265.218 145.742 265.033 146.57 265.033C147.255 265.033 147.835 265.162 148.312 265.421C148.793 265.676 149.133 266.046 149.332 266.531C149.424 266.749 149.484 266.992 149.512 267.26C149.54 267.528 149.554 267.801 149.554 268.079V272.735H148.645V270.854L148.908 270.965C148.654 271.608 148.258 272.099 147.722 272.436C147.185 272.774 146.542 272.943 145.793 272.943ZM145.911 272.062C146.387 272.062 146.804 271.976 147.16 271.805C147.516 271.634 147.803 271.4 148.02 271.104C148.238 270.803 148.379 270.466 148.443 270.091C148.499 269.85 148.529 269.587 148.534 269.3C148.538 269.008 148.541 268.791 148.541 268.648L148.929 268.849C148.582 268.895 148.205 268.941 147.798 268.988C147.396 269.034 146.998 269.087 146.605 269.147C146.216 269.207 145.865 269.279 145.55 269.362C145.337 269.423 145.131 269.508 144.932 269.619C144.733 269.726 144.569 269.869 144.44 270.049C144.315 270.23 144.252 270.454 144.252 270.722C144.252 270.94 144.306 271.15 144.412 271.354C144.523 271.557 144.699 271.726 144.939 271.86C145.185 271.994 145.508 272.062 145.911 272.062ZM156.772 272.735V268.911C156.772 268.495 156.733 268.113 156.654 267.766C156.576 267.415 156.448 267.11 156.273 266.851C156.101 266.587 155.877 266.383 155.6 266.24C155.327 266.097 154.994 266.025 154.6 266.025C154.24 266.025 153.92 266.087 153.643 266.212C153.37 266.337 153.139 266.517 152.949 266.753C152.764 266.985 152.623 267.267 152.526 267.6C152.429 267.933 152.38 268.312 152.38 268.738L151.658 268.578C151.658 267.81 151.793 267.165 152.061 266.642C152.329 266.12 152.699 265.724 153.171 265.456C153.643 265.188 154.184 265.053 154.795 265.053C155.243 265.053 155.634 265.123 155.967 265.262C156.305 265.4 156.59 265.588 156.821 265.824C157.057 266.06 157.246 266.33 157.39 266.635C157.533 266.936 157.637 267.258 157.702 267.6C157.767 267.938 157.799 268.275 157.799 268.613V272.735H156.772ZM151.353 272.735V265.241H152.276V267.086H152.38V272.735H151.353ZM162.466 272.943C161.768 272.943 161.171 272.769 160.676 272.422C160.181 272.071 159.802 271.597 159.538 271C159.275 270.403 159.143 269.73 159.143 268.981C159.143 268.236 159.272 267.565 159.531 266.968C159.795 266.372 160.172 265.9 160.662 265.553C161.153 265.206 161.74 265.033 162.425 265.033C163.128 265.033 163.72 265.204 164.201 265.546C164.682 265.888 165.045 266.358 165.291 266.955C165.54 267.547 165.665 268.222 165.665 268.981C165.665 269.726 165.543 270.399 165.297 271C165.052 271.597 164.692 272.071 164.215 272.422C163.739 272.769 163.156 272.943 162.466 272.943ZM162.571 271.992C163.103 271.992 163.542 271.863 163.889 271.604C164.236 271.345 164.495 270.988 164.666 270.535C164.837 270.077 164.923 269.559 164.923 268.981C164.923 268.393 164.837 267.875 164.666 267.426C164.495 266.973 164.236 266.619 163.889 266.365C163.547 266.11 163.114 265.983 162.591 265.983C162.055 265.983 161.611 266.115 161.259 266.379C160.908 266.642 160.646 267.001 160.475 267.454C160.309 267.908 160.225 268.416 160.225 268.981C160.225 269.55 160.311 270.063 160.482 270.521C160.658 270.974 160.919 271.333 161.266 271.597C161.613 271.86 162.048 271.992 162.571 271.992ZM164.923 272.735V267.093H164.812V262.743H165.839V272.735H164.923ZM169.381 272.735L167.092 265.234L168.112 265.241L169.888 271.062L171.671 265.241H172.601L174.384 271.062L176.174 265.241H177.187L174.898 272.735H174.009L172.136 266.767L170.269 272.735H169.381ZM178.576 263.818V262.673H179.596V263.818H178.576ZM178.576 272.735V265.241H179.596V272.735H178.576ZM184.584 272.943C183.885 272.943 183.289 272.769 182.794 272.422C182.299 272.071 181.919 271.597 181.656 271C181.392 270.403 181.26 269.73 181.26 268.981C181.26 268.236 181.39 267.565 181.649 266.968C181.912 266.372 182.289 265.9 182.78 265.553C183.27 265.206 183.858 265.033 184.542 265.033C185.245 265.033 185.837 265.204 186.319 265.546C186.8 265.888 187.163 266.358 187.408 266.955C187.658 267.547 187.783 268.222 187.783 268.981C187.783 269.726 187.66 270.399 187.415 271C187.17 271.597 186.809 272.071 186.332 272.422C185.856 272.769 185.273 272.943 184.584 272.943ZM184.688 271.992C185.22 271.992 185.659 271.863 186.006 271.604C186.353 271.345 186.612 270.988 186.783 270.535C186.955 270.077 187.04 269.559 187.04 268.981C187.04 268.393 186.955 267.875 186.783 267.426C186.612 266.973 186.353 266.619 186.006 266.365C185.664 266.11 185.231 265.983 184.709 265.983C184.172 265.983 183.728 266.115 183.376 266.379C183.025 266.642 182.764 267.001 182.592 267.454C182.426 267.908 182.343 268.416 182.343 268.981C182.343 269.55 182.428 270.063 182.599 270.521C182.775 270.974 183.036 271.333 183.383 271.597C183.73 271.86 184.165 271.992 184.688 271.992ZM187.04 272.735V267.093H186.929V262.743H187.956V272.735H187.04ZM193.983 272.735C193.562 272.823 193.145 272.857 192.734 272.839C192.327 272.82 191.961 272.732 191.637 272.575C191.318 272.418 191.075 272.173 190.909 271.84C190.775 271.562 190.701 271.282 190.687 271C190.678 270.713 190.673 270.387 190.673 270.022V263.159H191.686V269.98C191.686 270.294 191.688 270.558 191.693 270.771C191.702 270.979 191.751 271.164 191.839 271.326C192.005 271.636 192.269 271.821 192.63 271.881C192.995 271.941 193.446 271.927 193.983 271.84V272.735ZM189.07 266.115V265.241H193.983V266.115H189.07ZM200.871 272.735V268.911C200.871 268.495 200.832 268.113 200.753 267.766C200.675 267.415 200.548 267.11 200.372 266.851C200.201 266.587 199.976 266.383 199.699 266.24C199.426 266.097 199.093 266.025 198.7 266.025C198.339 266.025 198.02 266.087 197.742 266.212C197.469 266.337 197.238 266.517 197.048 266.753C196.863 266.985 196.722 267.267 196.625 267.6C196.528 267.933 196.479 268.312 196.479 268.738L195.758 268.578C195.758 267.81 195.892 267.165 196.16 266.642C196.428 266.12 196.798 265.724 197.27 265.456C197.742 265.188 198.283 265.053 198.894 265.053C199.343 265.053 199.733 265.123 200.067 265.262C200.404 265.4 200.689 265.588 200.92 265.824C201.156 266.06 201.346 266.33 201.489 266.635C201.632 266.936 201.736 267.258 201.801 267.6C201.866 267.938 201.898 268.275 201.898 268.613V272.735H200.871ZM195.452 272.735V262.743H196.375V268.384H196.479V272.735H195.452Z" fill="black"/>
<ellipse cx="26.275" cy="268.63" rx="2.485" ry="2.47813" fill="#69E6A6"/>
<path d="M40.3686 308.621C39.8737 308.621 39.418 308.533 39.0017 308.357C38.5854 308.182 38.2269 307.932 37.9262 307.608C37.6255 307.28 37.4058 306.889 37.267 306.435L38.2384 306.144C38.405 306.639 38.6779 307.014 39.0572 307.268C39.4412 307.523 39.8737 307.645 40.3548 307.636C40.7989 307.627 41.1805 307.527 41.4997 307.337C41.8235 307.148 42.071 306.884 42.2421 306.546C42.4133 306.209 42.4989 305.818 42.4989 305.374C42.4989 304.694 42.2999 304.148 41.9021 303.736C41.5089 303.32 40.9885 303.112 40.3409 303.112C40.1605 303.112 39.9708 303.137 39.7719 303.188C39.573 303.234 39.388 303.301 39.2168 303.389L38.7033 302.577L42.5891 298.99L42.7556 299.406H37.6625V298.428H43.4356V299.42L40.0495 302.654L40.0356 302.251C40.7295 302.163 41.3401 302.242 41.8674 302.487C42.3948 302.732 42.8065 303.107 43.1025 303.611C43.4032 304.111 43.5535 304.698 43.5535 305.374C43.5535 306.012 43.4148 306.577 43.1372 307.067C42.8643 307.553 42.4873 307.934 42.0062 308.212C41.5251 308.485 40.9793 308.621 40.3686 308.621ZM48.3029 308.628C47.7848 308.628 47.3061 308.522 46.8666 308.309C46.4271 308.096 46.0524 307.802 45.7425 307.428C45.4326 307.053 45.2105 306.623 45.0764 306.137L46.0548 305.873C46.1426 306.234 46.3022 306.546 46.5335 306.81C46.7648 307.069 47.0354 307.27 47.3454 307.414C47.6599 307.557 47.9884 307.629 48.3307 307.629C48.7748 307.629 49.1726 307.523 49.5241 307.31C49.8803 307.092 50.1625 306.806 50.3707 306.449C50.5788 306.093 50.6829 305.702 50.6829 305.277C50.6829 304.837 50.5742 304.442 50.3568 304.09C50.1394 303.734 49.8526 303.452 49.4964 303.244C49.1402 303.035 48.7516 302.931 48.3307 302.931C47.8588 302.931 47.4518 303.035 47.1095 303.244C46.7671 303.447 46.4942 303.704 46.2907 304.014L45.3609 303.625L45.6662 298.428H51.0021V299.406H46.1172L46.6237 298.928L46.3531 303.362L46.0964 303.022C46.3832 302.693 46.7301 302.436 47.1372 302.251C47.5443 302.066 47.9722 301.974 48.4209 301.974C49.0361 301.974 49.5912 302.122 50.0862 302.418C50.5812 302.709 50.9743 303.105 51.2658 303.604C51.5572 304.104 51.7029 304.661 51.7029 305.277C51.7029 305.887 51.548 306.447 51.238 306.956C50.9281 307.46 50.5164 307.865 50.0029 308.17C49.4895 308.475 48.9228 308.628 48.3029 308.628ZM54.3348 308.42L53.6409 307.726L62.9597 298.428L63.6536 299.115L54.3348 308.42ZM61.5719 308.628C61.114 308.628 60.6953 308.517 60.316 308.295C59.9413 308.068 59.6406 307.768 59.414 307.393C59.1873 307.014 59.074 306.593 59.074 306.13C59.074 305.677 59.1896 305.26 59.4209 304.881C59.6522 304.502 59.9575 304.199 60.3368 303.972C60.7161 303.746 61.1278 303.632 61.5719 303.632C62.0299 303.632 62.4485 303.746 62.8278 303.972C63.2072 304.194 63.5078 304.495 63.7299 304.874C63.9565 305.249 64.0699 305.668 64.0699 306.13C64.0699 306.593 63.9565 307.014 63.7299 307.393C63.5078 307.768 63.2072 308.068 62.8278 308.295C62.4485 308.517 62.0299 308.628 61.5719 308.628ZM61.5719 307.705C61.8541 307.705 62.1155 307.634 62.356 307.49C62.5965 307.347 62.7885 307.157 62.9319 306.921C63.0753 306.681 63.147 306.417 63.147 306.13C63.147 305.843 63.0753 305.582 62.9319 305.346C62.7885 305.106 62.5965 304.914 62.356 304.77C62.1155 304.627 61.8541 304.555 61.5719 304.555C61.2851 304.555 61.0214 304.627 60.7809 304.77C60.545 304.914 60.353 305.106 60.205 305.346C60.0616 305.582 59.9899 305.843 59.9899 306.13C59.9899 306.417 60.0616 306.681 60.205 306.921C60.353 307.157 60.545 307.347 60.7809 307.49C61.0214 307.634 61.2851 307.705 61.5719 307.705ZM55.7225 303.216C55.2646 303.216 54.8459 303.105 54.4666 302.883C54.0873 302.656 53.7843 302.355 53.5576 301.981C53.3356 301.601 53.2246 301.18 53.2246 300.718C53.2246 300.265 53.3402 299.848 53.5715 299.469C53.8028 299.09 54.1081 298.787 54.4874 298.56C54.8667 298.333 55.2784 298.22 55.7225 298.22C56.1805 298.22 56.5968 298.333 56.9715 298.56C57.3508 298.782 57.6538 299.083 57.8805 299.462C58.1072 299.837 58.2205 300.255 58.2205 300.718C58.2205 301.18 58.1072 301.601 57.8805 301.981C57.6538 302.355 57.3508 302.656 56.9715 302.883C56.5968 303.105 56.1805 303.216 55.7225 303.216ZM55.7225 302.293C56.0093 302.293 56.2707 302.221 56.5066 302.078C56.7472 301.934 56.9391 301.745 57.0825 301.509C57.2259 301.268 57.2976 301.005 57.2976 300.718C57.2976 300.431 57.2259 300.17 57.0825 299.934C56.9391 299.693 56.7472 299.501 56.5066 299.358C56.2707 299.214 56.0093 299.143 55.7225 299.143C55.4357 299.143 55.1721 299.214 54.9315 299.358C54.6956 299.501 54.5059 299.693 54.3625 299.934C54.2191 300.17 54.1474 300.431 54.1474 300.718C54.1474 301.005 54.2191 301.268 54.3625 301.509C54.5059 301.745 54.6956 301.934 54.9315 302.078C55.1721 302.221 55.4357 302.293 55.7225 302.293ZM68.5116 304.486V303.611H72.6748V304.486H68.5116ZM79.3404 308.42L82.782 298.428H84.1351L87.5767 308.42H86.5151L83.2469 298.997H83.6494L80.402 308.42H79.3404ZM80.8739 305.998V305.041H86.0363V305.998H80.8739ZM91.3554 298.428H92.4032L89.7387 308.42H88.6909L91.3554 298.428ZM94.21 308.42V298.428H98.0679C98.6277 298.428 99.1157 298.544 99.532 298.775C99.9483 299.006 100.272 299.319 100.503 299.712C100.735 300.1 100.85 300.531 100.85 301.002C100.85 301.539 100.707 302.018 100.42 302.439C100.133 302.855 99.7494 303.144 99.2683 303.306L99.2545 302.966C99.9021 303.151 100.411 303.475 100.781 303.937C101.151 304.4 101.336 304.96 101.336 305.617C101.336 306.195 101.214 306.694 100.968 307.115C100.723 307.532 100.379 307.853 99.9345 308.08C99.4904 308.307 98.9746 308.42 98.3871 308.42H94.21ZM95.2369 307.442H98.1373C98.5444 307.442 98.9098 307.37 99.2336 307.226C99.5574 307.078 99.8119 306.87 99.9969 306.602C100.187 306.334 100.281 306.01 100.281 305.631C100.281 305.26 100.196 304.927 100.025 304.631C99.8535 304.335 99.6199 304.099 99.3238 303.924C99.0324 303.743 98.6994 303.653 98.3247 303.653H95.2369V307.442ZM95.2369 302.688H98.061C98.3802 302.688 98.6716 302.617 98.9353 302.473C99.1989 302.325 99.4071 302.124 99.5598 301.87C99.717 301.615 99.7957 301.322 99.7957 300.988C99.7957 300.517 99.6315 300.133 99.303 299.837C98.9792 299.541 98.5652 299.393 98.061 299.393H95.2369V302.688ZM109.579 308.42C109.158 308.508 108.742 308.543 108.33 308.524C107.923 308.506 107.558 308.418 107.234 308.26C106.915 308.103 106.672 307.858 106.505 307.525C106.371 307.247 106.297 306.967 106.283 306.685C106.274 306.398 106.269 306.072 106.269 305.707V298.844H107.282V305.665C107.282 305.98 107.285 306.243 107.289 306.456C107.298 306.664 107.347 306.849 107.435 307.011C107.601 307.321 107.865 307.506 108.226 307.566C108.591 307.627 109.042 307.613 109.579 307.525V308.42ZM104.666 301.8V300.926H109.579V301.8H104.666ZM113.955 308.628C113.225 308.628 112.591 308.466 112.054 308.142C111.522 307.819 111.108 307.363 110.812 306.775C110.516 306.188 110.368 305.499 110.368 304.708C110.368 303.889 110.514 303.181 110.805 302.584C111.097 301.988 111.506 301.527 112.033 301.204C112.565 300.88 113.192 300.718 113.914 300.718C114.654 300.718 115.285 300.889 115.808 301.231C116.331 301.569 116.726 302.055 116.995 302.688C117.263 303.322 117.386 304.079 117.362 304.957H116.322V304.597C116.303 303.625 116.093 302.892 115.69 302.397C115.292 301.902 114.709 301.655 113.942 301.655C113.137 301.655 112.519 301.916 112.089 302.439C111.663 302.961 111.451 303.706 111.451 304.673C111.451 305.617 111.663 306.35 112.089 306.873C112.519 307.391 113.127 307.65 113.914 307.65C114.45 307.65 114.918 307.527 115.315 307.282C115.718 307.032 116.035 306.674 116.266 306.206L117.217 306.574C116.921 307.226 116.483 307.733 115.905 308.094C115.332 308.45 114.682 308.628 113.955 308.628ZM111.09 304.957V304.104H116.814V304.957H111.09ZM121.699 308.621C120.82 308.621 120.096 308.431 119.527 308.052C118.962 307.673 118.615 307.146 118.486 306.47L119.527 306.297C119.638 306.722 119.89 307.062 120.283 307.317C120.681 307.566 121.171 307.691 121.754 307.691C122.323 307.691 122.772 307.573 123.1 307.337C123.429 307.097 123.593 306.771 123.593 306.359C123.593 306.128 123.54 305.94 123.433 305.797C123.331 305.649 123.121 305.513 122.802 305.388C122.483 305.263 122.006 305.115 121.372 304.944C120.692 304.759 120.16 304.574 119.777 304.388C119.393 304.203 119.12 303.991 118.958 303.75C118.796 303.505 118.715 303.207 118.715 302.855C118.715 302.429 118.835 302.057 119.076 301.738C119.316 301.414 119.649 301.164 120.075 300.988C120.5 300.808 120.995 300.718 121.56 300.718C122.124 300.718 122.628 300.81 123.072 300.995C123.521 301.176 123.882 301.43 124.155 301.759C124.428 302.087 124.59 302.469 124.641 302.904L123.6 303.091C123.53 302.651 123.311 302.305 122.941 302.05C122.575 301.791 122.11 301.657 121.546 301.648C121.014 301.634 120.581 301.736 120.248 301.953C119.915 302.166 119.749 302.45 119.749 302.806C119.749 303.005 119.809 303.177 119.929 303.32C120.049 303.459 120.267 303.591 120.581 303.715C120.901 303.84 121.354 303.977 121.941 304.125C122.631 304.301 123.172 304.486 123.565 304.68C123.958 304.874 124.238 305.103 124.405 305.367C124.571 305.631 124.654 305.957 124.654 306.345C124.654 307.053 124.391 307.61 123.863 308.017C123.341 308.42 122.619 308.621 121.699 308.621ZM130.273 308.42C129.852 308.508 129.436 308.543 129.024 308.524C128.617 308.506 128.252 308.418 127.928 308.26C127.609 308.103 127.366 307.858 127.2 307.525C127.065 307.247 126.991 306.967 126.977 306.685C126.968 306.398 126.964 306.072 126.964 305.707V298.844H127.977V305.665C127.977 305.98 127.979 306.243 127.984 306.456C127.993 306.664 128.041 306.849 128.129 307.011C128.296 307.321 128.56 307.506 128.92 307.566C129.286 307.627 129.737 307.613 130.273 307.525V308.42ZM125.361 301.8V300.926H130.273V301.8H125.361ZM131.889 299.504V298.359H132.909V299.504H131.889ZM131.889 308.42V300.926H132.909V308.42H131.889ZM140.401 308.42V304.597C140.401 304.18 140.362 303.799 140.283 303.452C140.204 303.1 140.077 302.795 139.901 302.536C139.73 302.272 139.506 302.069 139.228 301.925C138.955 301.782 138.622 301.71 138.229 301.71C137.868 301.71 137.549 301.773 137.272 301.897C136.999 302.022 136.767 302.203 136.578 302.439C136.393 302.67 136.252 302.952 136.155 303.285C136.057 303.618 136.009 303.998 136.009 304.423L135.287 304.264C135.287 303.496 135.421 302.85 135.69 302.328C135.958 301.805 136.328 301.409 136.8 301.141C137.272 300.873 137.813 300.739 138.424 300.739C138.872 300.739 139.263 300.808 139.596 300.947C139.934 301.086 140.218 301.273 140.45 301.509C140.686 301.745 140.875 302.015 141.019 302.321C141.162 302.621 141.266 302.943 141.331 303.285C141.396 303.623 141.428 303.961 141.428 304.298V308.42H140.401ZM134.982 308.42V300.926H135.905V302.772H136.009V308.42H134.982ZM146.205 311.959C145.821 311.959 145.442 311.901 145.067 311.785C144.697 311.674 144.355 311.496 144.04 311.251C143.726 311.01 143.462 310.696 143.249 310.307L144.172 309.794C144.38 310.21 144.672 310.508 145.047 310.689C145.426 310.874 145.812 310.966 146.205 310.966C146.747 310.966 147.184 310.865 147.517 310.661C147.854 310.462 148.1 310.166 148.252 309.773C148.405 309.38 148.479 308.889 148.474 308.302V306.304H148.592V300.926H149.501V308.316C149.501 308.529 149.494 308.732 149.48 308.926C149.471 309.125 149.45 309.32 149.418 309.509C149.33 310.069 149.147 310.529 148.87 310.89C148.597 311.251 148.236 311.519 147.787 311.695C147.343 311.871 146.816 311.959 146.205 311.959ZM146.136 308.628C145.437 308.628 144.841 308.455 144.346 308.108C143.851 307.756 143.471 307.282 143.208 306.685C142.944 306.088 142.812 305.415 142.812 304.666C142.812 303.921 142.942 303.251 143.201 302.654C143.465 302.057 143.842 301.585 144.332 301.238C144.822 300.891 145.41 300.718 146.094 300.718C146.797 300.718 147.39 300.889 147.871 301.231C148.352 301.574 148.715 302.043 148.96 302.64C149.21 303.232 149.335 303.907 149.335 304.666C149.335 305.411 149.212 306.084 148.967 306.685C148.722 307.282 148.361 307.756 147.885 308.108C147.408 308.455 146.825 308.628 146.136 308.628ZM146.24 307.677C146.772 307.677 147.211 307.548 147.558 307.289C147.905 307.03 148.164 306.674 148.336 306.22C148.507 305.762 148.592 305.244 148.592 304.666C148.592 304.079 148.507 303.56 148.336 303.112C148.164 302.658 147.905 302.305 147.558 302.05C147.216 301.796 146.784 301.668 146.261 301.668C145.724 301.668 145.28 301.8 144.929 302.064C144.577 302.328 144.316 302.686 144.145 303.14C143.978 303.593 143.895 304.102 143.895 304.666C143.895 305.235 143.98 305.748 144.151 306.206C144.327 306.66 144.589 307.018 144.936 307.282C145.282 307.546 145.717 307.677 146.24 307.677Z" fill="black"/>
<ellipse cx="26.275" cy="304.315" rx="2.485" ry="2.47813" fill="#C4C4C4"/>
</g>
<defs>
<clipPath id="clip0_604_1459">
<rect width="173.469" height="173.469" fill="white" transform="translate(26.2681 23.79)"/>
</clipPath>
<clipPath id="clip1_604_1459">
<rect width="179.417" height="95.1603" fill="white" transform="translate(23.79 221.05)"/>
</clipPath>
</defs>
</svg>
